<svg version="1" xmlns="http://www.w3.org/2000/svg" width="1145.333" height="1145.333" viewBox="0 0 859.000000 859.000000"><path d="M491.8.5c-.2.2-5.9.6-12.8 1-22.3 1.2-40.2 2.5-41 3-.3.2-3.9.6-8 .9-4.1.4-8.4.9-9.5 1.1-1.9.4-3.3.6-14 2-2.7.4-9.3 1.5-14.5 2.5-5.2 1-11.1 2.1-13 2.4-4.1.6-31.8 7.4-34 8.3-.8.3-2 .7-2.6.8-6.8 1.5-28.3 9.1-38.9 13.8-12.9 5.7-25.8 13.3-32 18.9-1.6 1.4-3.9 3.5-5.1 4.5-7.8 6.9-14.3 21.1-13.8 30.2.1 2.5.5 9.5.9 15.6.3 6 .8 15 1.1 20 .3 4.9.7 11.9.9 15.5.2 3.6.7 10.3 1 15 .5 8.5 1 14.8 2 25 .3 3 .7 8.1.9 11.3.7 9.9 2.8 16.1 7.4 22 4.1 5.3 21.7 21.7 26.5 24.9 1 .6-9.2 29.5-13.6 38.3-1.1 2.2-2 4.2-2 4.5 0 .3-.3 1.4-.7 2.5-4.8 12.2-7.4 18.2-8.1 18.9-.5.6-.9 1.6-.9 2.4 0 .7-1.2 3.9-2.6 7-3.3 7.3-4.6 10.3-7.9 18.2-1.5 3.6-4 9.3-5.6 12.8-1.6 3.5-2.9 6.5-2.9 6.7 0 .2-1.5 3.6-3.4 7.7-1.8 4-4.8 10.7-6.6 14.8-1.7 4.1-5 11.3-7.2 16-2.2 4.7-4.1 9-4.2 9.6-.1.7-.7 1.8-1.3 2.5-.6.8-1.1 1.6-1.1 1.9 0 .3-1.4 3.6-3.2 7.5-1.8 3.8-3.8 8.3-4.5 10-.8 1.6-3.1 6.8-5.3 11.5-2.1 4.7-3.9 8.7-4 9 0 .3-1.3 3-2.8 6-1.6 3-2.9 5.7-2.9 6-.1.3-1.3 3.1-2.8 6.3-1.5 3.2-2.7 6.2-2.7 6.7 0 .6-.4 1-1 1-.5 0-1 .5-1 1.1 0 1.1-1.8 5.2-9.6 21.4-2.6 5.5-4.8 10.2-4.9 10.5-.1.3-2.9 6.3-6.3 13.4-3.4 7-6.2 12.9-6.2 13.1 0 .2-3.9 8.4-8.6 18.2-13.8 28.5-19.4 40.3-19.2 40.6.1.1-1.1 2.1-2.5 4.4-1.5 2.4-2.5 4.3-2.3 4.3.3 0-1.7 4.4-4.4 9.7-2.6 5.4-6.1 12.7-7.8 16.3-1.6 3.6-5.7 12.1-8.9 19-3.3 6.9-6.7 14.1-7.5 16-4.8 10.9-7.8 18.2-10.1 24-1.3 3.6-2.8 7.4-3.2 8.5-.5 1.1-.9 2.2-1 2.5 0 .3-1.2 3.9-2.5 8-2.6 7.7-3.2 19.8-1.5 27.8 1.6 8.1 6.9 17.1 15.4 26.6 11.1 12.4 90.3 90.6 93.3 92.2 5.3 2.8 18.2 1.5 22.8-2.2.8-.7 2-1.3 2.5-1.4 2.8-.3 17.7-14.5 23.4-22.3 6.4-8.7 23.4-31.2 24.1-32 .6-.7 6.5 3.8 23.5 18.2 1.1.9 5.8 4.6 10.5 8.1 4.7 3.6 8.7 6.7 9 7.1.3.3 2.8 2.1 5.5 4 2.8 1.8 5.2 3.7 5.5 4 1.2 1.4 19 12.9 20 12.9.5 0 1 .3 1 .7 0 .5 1 1.3 2.3 1.9l10.2 5.1c10.8 5.6 14 6.9 21 8.7 6.3 1.6 17.4 1.8 23.4.5 2-.4 5.1-1 7-1.3 4.8-.7 22.5-6.8 23.3-8.1.4-.5.8-.6.8-.1 0 .4 1.1.1 2.5-.8s2.5-1.3 2.5-.9c0 .5.4.3.8-.3.4-.5 3.9-2.7 7.7-4.8 7.4-4 22.3-13.6 24.6-15.8.8-.7 2.7-2.1 4.2-3.1 2.9-1.9 3.8-2.6 9.4-7.4 1.7-1.6 5.3-4.7 8-6.9 8.7-7.5 9.7-8.5 17.8-16.4 10.6-10.3 20.2-20.4 30.5-32 10.8-12 9.9-11 14-16 1.9-2.4 4.2-5.1 5-5.9.8-.9 6.7-8.1 13-16.1 6.3-8 11.8-14.6 12.2-14.8.4-.2.8-.8.8-1.3 0-.8 1.5-2.9 4.5-6.3.6-.6 3.5-4.5 6.5-8.6s5.7-7.7 6-8c1.6-1.4 17-23.9 17-24.9 0-.6.4-1.1.9-1.1s1.6-1.2 2.4-2.7c.8-1.6 4.1-7.1 7.4-12.3 10.7-16.8 18.7-31.9 24.8-47 4.3-10.7 9-25.6 10-32 .3-1.9.8-4.2 1-5 .9-2.9 1.7-12.5 1.8-19.5.1-29.2-10.1-59.7-31.7-94.4l-6.5-10.3 3.2-2.7c1.8-1.4 3.7-3 4.3-3.6.6-.5 3.2-2.8 5.8-5 2.7-2.2 6.3-5.4 8.1-7 1.8-1.7 6.8-6.2 11.1-10 19.6-17.6 42.9-42.2 57.7-60.9 4.9-6.1 9.5-11.9 10.3-12.9.8-.9 1.4-1.9 1.4-2.1 0-.3 2.1-3.5 4.7-7.3 3.8-5.6 15.6-26.5 15.9-28.3 0-.3 1.2-3.1 2.6-6.2 5-10.8 11.9-33.5 13.4-43.6.3-2.1.7-4.3.9-5 1.9-5.4 2.7-43.3 1.2-53.7-1.1-7.4-1.9-12.8-2.2-14.5-1.1-5.1-3.8-16-4.7-19-3.3-10.2-5.2-15.8-6.3-18.5-.8-1.7-2.3-5.5-3.5-8.5-2.8-7.1-14.9-30.4-16.1-30.8-.5-.2-.9-.9-.9-1.6 0-.6-.7-2.1-1.5-3.1-.8-1.1-4.8-6.5-8.9-12-7.5-10.3-20.3-23.9-29-31-2.7-2.2-5.4-4.5-6-5-1.5-1.4-14.1-9.7-19.1-12.6C652.6 17.5 628 9.2 603 5.4c-1.9-.3-4.6-.7-6-.9-6.1-1-9.9-1.5-15.5-2.1-3.3-.3-7.8-.7-10-1C567 .9 492.3.1 491.8.5zM557 182.4c8.1.7 14.9 2.5 19.9 5.1 11.5 5.9 14.6 17.8 7.9 30.9-2.1 4.2-9.4 15.3-11.2 17.2-.6.6-2.4 2.8-4.1 4.9-5.9 7.5-29.9 31-43 42-3.8 3.2-7.1 6.2-7.3 6.7-.2.4-.8.8-1.4.8-.5 0-1.6.7-2.4 1.5-2.7 2.7-22.2 16.5-23.3 16.5-.6 0-1.1.4-1.1.8s-2.8 2.4-6.2 4.5c-3.5 2-7 4.2-7.8 4.7-2 1.2-18.2 10-18.5 10-.6 0 6.1-22.3 8.3-28 .5-1.4 1.1-3 1.2-3.5.4-1.5.5-2 5.6-18 2.7-8.3 4.9-15.2 4.9-15.5.2-1.2 4.8-15.8 5.8-18.5.6-1.7 1.2-3.5 1.3-4 .1-.6 1.9-6.2 3.9-12.5s3.8-12.2 4-13c.2-.8.8-2.7 1.4-4.3.6-1.5 1.3-3.8 1.6-5 .2-1.2 1.2-4.9 2.1-8.2.8-3.3 1.7-6.7 1.9-7.5 1.6-8.1 1.4-7.9 6.4-8.2 8.2-.5 42.4-.1 50.1.6zM453 483c12.8 3.5 18.5 10.7 19.2 24.5.3 5.2-3 20.2-6.3 28.8-2.6 6.7-11.9 26-12.9 26.7-.4.3-1.5 2.1-2.5 4-1.6 3-6.8 11.3-9.2 14.5-.5.6-2.1 2.8-3.8 5-5.3 7.1-8.3 10.6-16 18.6-5.2 5.4-14.1 13.5-19 17.2-.5.4-2.3 1.8-3.8 3.1-8 6.5-28.8 17.1-35.6 18-1.4.2-3.3.6-4.1.9-1.9.7-11.6 2.6-16.1 3.2-1.9.2-5.5.6-8.1.9-5.3.7-5.7.2-3.3-4.4.9-1.7 1.3-3 .9-3s-.2-.6.3-1.3c.6-.6 2.7-5.3 4.8-10.2 4.3-10.5 5.5-13.3 8.4-19.7 1.2-2.6 2.1-4.9 2.1-5.2 0-.5 1.9-4.9 6-14.1.5-1.1 5.2-12.1 10.3-24.5 5.2-12.4 10.3-24.3 11.2-26.5 1-2.2 1.9-4.5 2.1-5 .2-.8 3.7-9 9.5-22.5.6-1.4 1.5-3.3 2-4.2.5-1 .9-2.5.9-3.3 0-.8.5-1.5 1-1.5.6 0 1-.7 1-1.6 0-.8 1.1-3.9 2.4-6.7 1.3-2.9 2.6-5.9 2.9-6.8.3-1 2.2-1.9 5-2.3 2.4-.4 5.7-.9 7.3-1.2 16.3-3.1 35.1-3.7 43.4-1.4z"/></svg>